<?xml version="1.0" standalone="no"?>
<!DOCTYPE svg PUBLIC "-//W3C//DTD SVG 20010904//EN"
 "http://www.w3.org/TR/2001/REC-SVG-20010904/DTD/svg10.dtd">
<svg version="1.0" xmlns="http://www.w3.org/2000/svg"
 width="700.000000pt" height="700.000000pt" viewBox="0 0 700.000000 700.000000"
 preserveAspectRatio="xMidYMid meet">
<metadata>
Created by potrace 1.14, written by Peter Selinger 2001-2017
</metadata>
<g transform="translate(0.000000,700.000000) scale(0.100000,-0.100000)"
fill="#000000" stroke="none">
<path d="M0 3500 l0 -3500 3500 0 3500 0 0 3500 0 3500 -3500 0 -3500 0 0
-3500z m5267 2290 c12 0 25 -5 28 -10 6 -10 -108 -235 -220 -435 -12 -22 -46
-85 -75 -140 -29 -55 -56 -104 -60 -110 -5 -5 -23 -39 -42 -75 -37 -70 -96
-178 -136 -250 -14 -25 -37 -67 -52 -95 -15 -27 -41 -75 -57 -105 -40 -72
-202 -368 -244 -445 -17 -33 -49 -91 -71 -128 -21 -38 -38 -70 -38 -72 0 -2
-13 -26 -28 -52 -16 -26 -50 -88 -77 -138 -26 -49 -64 -119 -85 -155 -20 -36
-39 -69 -41 -75 -2 -5 -20 -39 -40 -75 -20 -36 -86 -153 -145 -260 l-109 -195
-1 -920 c-1 -506 -2 -923 -3 -926 -1 -4 -123 -6 -273 -5 l-272 1 -1 920 c-1
515 -5 929 -10 940 -5 11 -24 47 -43 80 -19 33 -50 89 -70 125 -19 36 -180
326 -357 645 -177 319 -339 612 -360 650 -21 39 -82 149 -135 245 -54 96 -111
200 -127 230 -17 30 -53 96 -80 145 -27 50 -66 119 -85 155 -20 36 -47 85 -60
110 -170 310 -201 371 -189 383 8 8 115 12 354 15 l342 4 545 -1091 c300 -600
547 -1091 551 -1091 3 0 247 487 543 1083 296 595 544 1091 551 1103 13 21 18
21 332 17 175 -2 328 -3 340 -3z"/>
</g>
</svg>
